<svg width="29" height="25" viewBox="0 0 29 25" fill="none" xmlns="http://www.w3.org/2000/svg">
<g clip-path="url(#clip0_1_14)">
<path d="M28.1233 10.5468V11.328C28.1233 11.9752 27.5987 12.4999 26.9515 12.4999H26.561L25.2861 21.4251C25.1212 22.5797 24.1324 23.4374 22.9662 23.4374H5.15889C3.99268 23.4374 3.00394 22.5797 2.83897 21.4251L1.56413 12.4999H1.17356C0.526423 12.4999 0.00183105 11.9752 0.00183105 11.328V10.5468C0.00183105 9.89955 0.526423 9.37489 1.17356 9.37489H4.46127L9.67448 2.2059C10.182 1.50805 11.159 1.3537 11.8569 1.86127C12.5547 2.36884 12.709 3.34604 12.2015 4.04394L8.32485 9.37489H19.8002L15.9236 4.04389C15.4161 3.34604 15.5705 2.36879 16.2683 1.86122C16.966 1.35365 17.9432 1.50795 18.4507 2.20585L23.6638 9.37489H26.9515C27.5987 9.37489 28.1233 9.89955 28.1233 10.5468ZM15.2343 19.1405V13.6718C15.2343 13.0246 14.7097 12.4999 14.0625 12.4999C13.4154 12.4999 12.8908 13.0246 12.8908 13.6718V19.1405C12.8908 19.7877 13.4154 20.3124 14.0625 20.3124C14.7097 20.3124 15.2343 19.7877 15.2343 19.1405ZM20.7023 19.1405V13.6718C20.7023 13.0246 20.1777 12.4999 19.5306 12.4999C18.8835 12.4999 18.3589 13.0246 18.3589 13.6718V19.1405C18.3589 19.7877 18.8835 20.3124 19.5306 20.3124C20.1777 20.3124 20.7023 19.7877 20.7023 19.1405ZM9.76622 19.1405V13.6718C9.76622 13.0246 9.24162 12.4999 8.59449 12.4999C7.94735 12.4999 7.42276 13.0246 7.42276 13.6718V19.1405C7.42276 19.7877 7.94735 20.3124 8.59449 20.3124C9.24162 20.3124 9.76622 19.7877 9.76622 19.1405Z" fill="#EEEEEE"/>
</g>
<defs>
<clipPath id="clip0_1_14">
<rect width="28.125" height="25" fill="white"/>
</clipPath>
</defs>
</svg>
